HIERARCHY
ROOT Hips
{
	OFFSET 0.000000 0.000000 0.000000
	CHANNELS 6 Xposition Yposition Zposition Zrotation Yrotation Xrotation 
	JOINT LowerBack
	{
		OFFSET 0.000000 0.000000 0.000000
		CHANNELS 3 Zrotation Yrotation Xrotation
		JOINT Spine
		{
			OFFSET 0.028270 2.035590 -0.193380
			CHANNELS 3 Zrotation Yrotation Xrotation
			JOINT Spine1
			{
				OFFSET 0.056720 2.048850 -0.042750
				CHANNELS 3 Zrotation Yrotation Xrotation
				JOINT Neck
				{
					OFFSET 0.000000 0.000000 0.000000
					CHANNELS 3 Zrotation Yrotation Xrotation
					JOINT Neck1
					{
						OFFSET -0.054170 1.746240 0.172020
						CHANNELS 3 Zrotation Yrotation Xrotation
						JOINT Head
						{
							OFFSET 0.104070 1.761360 -0.123970
							CHANNELS 3 Zrotation Yrotation Xrotation
							End Site
							{
								OFFSET 0.000000 0.000000 0.000000
							}
						}
					}
				}
				JOINT LeftShoulder
				{
					OFFSET 0.000000 0.000000 0.000000
					CHANNELS 3 Zrotation Yrotation Xrotation
					JOINT LeftArm
					{
						OFFSET 3.362410 1.200890 -0.311210
						CHANNELS 3 Zrotation Yrotation Xrotation
						JOINT LeftForeArm
						{
							OFFSET 4.983000 -0.000000 -0.000000
							CHANNELS 3 Zrotation Yrotation Xrotation
							JOINT LeftHand
							{
								OFFSET 3.483560 -0.000000 -0.000000
								CHANNELS 3 Zrotation Yrotation Xrotation
								JOINT LeftFingerBase
								{
									OFFSET 0.000000 0.000000 0.000000
									CHANNELS 3 Zrotation Yrotation Xrotation
									JOINT LeftHandIndex1
									{
										OFFSET 0.715260 -0.000000 -0.000000
										CHANNELS 3 Zrotation Yrotation Xrotation
										End Site
										{
											OFFSET 0.000000 0.000000 0.000000
										}
									}
								}
								JOINT LThumb
								{
									OFFSET 0.000000 0.000000 0.000000
									CHANNELS 3 Zrotation Yrotation Xrotation
									End Site
									{
										OFFSET 0.000000 0.000000 0.000000
									}
								}
							}
						}
					}
				}
				JOINT RightShoulder
				{
					OFFSET 0.000000 0.000000 0.000000
					CHANNELS 3 Zrotation Yrotation Xrotation
					JOINT RightArm
					{
						OFFSET -3.136600 1.374050 -0.404650
						CHANNELS 3 Zrotation Yrotation Xrotation
						JOINT RightForeArm
						{
							OFFSET -5.241900 -0.000000 -0.000000
							CHANNELS 3 Zrotation Yrotation Xrotation
							JOINT RightHand
							{
								OFFSET -3.444170 -0.000000 -0.000000
								CHANNELS 3 Zrotation Yrotation Xrotation
								JOINT RightFingerBase
								{
									OFFSET 0.000000 0.000000 0.000000
									CHANNELS 3 Zrotation Yrotation Xrotation
									JOINT RightHandIndex1
									{
										OFFSET -0.622530 -0.000000 -0.000000
										CHANNELS 3 Zrotation Yrotation Xrotation
										End Site
										{
											OFFSET 0.000000 0.000000 0.000000
										}
									}
								}
								JOINT RThumb
								{
									OFFSET 0.000000 0.000000 0.000000
									CHANNELS 3 Zrotation Yrotation Xrotation
									End Site
									{
										OFFSET 0.000000 0.000000 0.000000
									}
								}
							}
						}
					}
				}
			}
		}
	}
}
}
MOTION
Frames: 12
Frame Time: 0.008333
1.924521 16.714981 1.183797 3.479305 -70.832781 10.252581 -0.353101 -2.614941 -7.016798 -0.737108 -2.758891 -4.839280 -8.610962 -2.916025 -4.947513 12.649957 -5.392785 0.156378 -4.333986 -0.391861 2.137327 0.000000 0.000000 0.000000 14.969150 -5.820723 -3.878915 -95.409098 -30.190441 39.165658 -179.800755 -62.085705 179.758322 15.290948 -38.249144 -5.808618 -0.320133 2.288476 -0.000000 0.000000 0.000000 0.000000 0.000000 0.000000 0.000000 8.163282 -4.696616 -0.493248 79.510022 6.008096 17.184764 -177.035762 50.835530 179.659687 -38.389097 53.294967 -20.915646 0.461009 -2.020609 -0.000000 0.000000 0.000000 0.000000 0.000000 0.000000 0.000000 
1.902283 16.722706 1.195115 3.554504 -68.874877 10.253767 -0.564869 -2.576368 -7.211586 -0.784985 -2.712147 -4.915385 -8.676065 -2.899747 -5.123964 12.719179 -4.926734 0.394667 -4.316720 -0.392811 2.204309 0.000000 0.000000 0.000000 14.808727 -6.056670 -3.838723 -96.042716 -30.520077 40.430596 -179.761783 -62.607344 179.760832 15.249111 -38.243564 -5.792260 -0.321909 2.287071 -0.000000 0.000000 0.000000 0.000000 0.000000 0.000000 0.000000 8.188492 -4.155235 -0.463598 79.112264 5.449124 15.682880 -176.969625 50.251428 179.659972 -39.181782 53.944362 -21.653696 0.461605 -2.027721 -0.000000 0.000000 0.000000 0.000000 0.000000 0.000000 0.000000 
1.879221 16.735076 1.205892 3.644981 -66.927507 10.243256 -0.813722 -2.539626 -7.413562 -0.835777 -2.663687 -4.990709 -8.717059 -2.881199 -5.289955 12.780349 -4.444848 0.640877 -4.293332 -0.393452 2.273231 0.000000 0.000000 0.000000 14.640321 -6.266085 -3.792498 -96.666909 -30.801007 41.685179 -179.731326 -63.085068 179.763056 15.189435 -38.229536 -5.767729 -0.322840 2.286452 -0.000000 0.000000 0.000000 0.000000 0.000000 0.000000 0.000000 8.190863 -3.604301 -0.441221 78.601558 5.057286 14.173759 -176.926756 49.677567 179.661346 -39.997493 54.562523 -22.405755 0.464161 -2.034876 -0.000000 0.000000 0.000000 0.000000 0.000000 0.000000 0.000000 
1.855791 16.751997 1.215620 3.777417 -65.006789 10.184421 -1.112034 -2.509415 -7.603194 -0.891022 -2.616146 -5.060870 -8.727854 -2.861334 -5.441057 12.828011 -3.957640 0.892407 -4.263765 -0.393731 2.343064 0.000000 0.000000 0.000000 14.470246 -6.441915 -3.743249 -97.263726 -31.041499 42.914147 -179.713363 -63.505872 179.764480 15.135937 -38.201806 -5.743440 -0.323307 2.286394 -0.000000 0.000000 0.000000 0.000000 0.000000 0.000000 0.000000 8.174360 -3.061388 -0.428233 77.948111 4.882863 12.659578 -176.917756 49.158841 179.664109 -40.786065 55.148834 -23.140434 0.467732 -2.041056 -0.000000 0.000000 0.000000 0.000000 0.000000 0.000000 0.000000 
1.832260 16.773323 1.224617 3.915528 -63.126024 10.110521 -1.445142 -2.482637 -7.782791 -0.947552 -2.567713 -5.126991 -8.703045 -2.838208 -5.578689 12.852776 -3.459257 1.150945 -4.226207 -0.393566 2.414413 0.000000 0.000000 0.000000 14.285665 -6.578317 -3.688810 -97.827068 -31.247388 44.108713 -179.704938 -63.874337 179.765329 15.078249 -38.167640 -5.716692 -0.323053 2.286978 -0.000000 0.000000 0.000000 0.000000 0.000000 0.000000 0.000000 8.127417 -2.516707 -0.426347 77.120022 4.922684 11.116359 -176.943457 48.718430 179.668102 -41.485816 55.676052 -23.805451 0.471425 -2.045089 -0.000000 0.000000 0.000000 0.000000 0.000000 0.000000 0.000000 
1.808918 16.798716 1.232767 4.060025 -61.298972 10.013998 -1.810776 -2.459223 -7.942629 -1.004467 -2.517966 -5.187608 -8.636940 -2.810574 -5.702531 12.845838 -2.950646 1.416313 -4.179977 -0.392919 2.487175 0.000000 0.000000 0.000000 14.083011 -6.670927 -3.629953 -98.345698 -31.426653 45.255993 -179.705964 -64.186741 179.765495 15.023414 -38.130893 -5.690584 -0.322183 2.288191 -0.000000 0.000000 0.000000 0.000000 0.000000 0.000000 0.000000 8.046978 -1.971105 -0.436553 76.085827 5.186123 9.521425 -177.005285 48.389303 179.673219 -42.053050 56.110453 -24.353813 0.474876 -2.045338 -0.000000 0.000000 0.000000 0.000000 0.000000 0.000000 0.000000 
1.785948 16.827603 1.240353 4.203563 -59.537641 9.904348 -2.196794 -2.439529 -8.083180 -1.058544 -2.467924 -5.242913 -8.521257 -2.778959 -5.810656 12.792679 -2.432824 1.685692 -4.124094 -0.391729 2.560703 0.000000 0.000000 0.000000 13.856822 -6.713175 -3.567488 -98.812183 -31.586448 46.345284 -179.716447 -64.438112 179.764825 14.989371 -38.089196 -5.671814 -0.321294 2.289925 -0.000000 0.000000 0.000000 0.000000 0.000000 0.000000 0.000000 7.925308 -1.425799 -0.460113 74.810797 5.675429 7.852693 -177.101837 48.210907 179.679298 -42.479790 56.417663 -24.758132 0.478143 -2.039615 -0.000000 0.000000 0.000000 0.000000 0.000000 0.000000 0.000000 
1.763681 16.859431 1.247372 4.342408 -57.853333 9.779721 -2.595735 -2.421515 -8.200406 -1.108114 -2.415799 -5.292625 -8.351432 -2.741186 -5.903297 12.683217 -1.906186 1.957289 -4.058547 -0.390011 2.634572 0.000000 0.000000 0.000000 13.602270 -6.704334 -3.503293 -99.220197 -31.735117 47.366151 -179.734992 -64.627514 179.763359 14.979377 -38.046100 -5.661977 -0.320542 2.292159 -0.000000 0.000000 0.000000 0.000000 0.000000 0.000000 0.000000 7.761721 -0.878854 -0.495420 73.265773 6.376323 6.084242 -177.227041 48.210187 179.686109 -42.790976 56.556439 -25.008509 0.481979 -2.025920 -0.000000 0.000000 0.000000 0.000000 0.000000 0.000000 0.000000 
1.742296 16.893487 1.254040 4.472472 -56.255925 9.645791 -2.995288 -2.403172 -8.296599 -1.150508 -2.360413 -5.337084 -8.123181 -2.695858 -5.978384 12.505027 -1.373733 2.226135 -3.983684 -0.387774 2.707559 0.000000 0.000000 0.000000 13.313207 -6.641985 -3.439724 -99.565183 -31.881469 48.311185 -179.759885 -64.755754 179.761168 15.000840 -38.001618 -5.664172 -0.320333 2.294750 -0.000000 0.000000 0.000000 0.000000 0.000000 0.000000 0.000000 7.555319 -0.331786 -0.540218 71.425471 7.272321 4.197580 -177.373216 48.417008 179.693445 -43.048776 56.500609 -25.126642 0.487207 -2.002298 -0.000000 0.000000 0.000000 0.000000 0.000000 0.000000 0.000000 
1.721904 16.928994 1.260498 4.593023 -54.753974 9.505274 -3.384031 -2.381878 -8.374374 -1.183483 -2.299958 -5.376459 -7.834572 -2.641001 -6.033588 12.247394 -0.840325 2.486269 -3.900552 -0.385057 2.778150 0.000000 0.000000 0.000000 12.985689 -6.525832 -3.380436 -99.844498 -32.034103 49.173726 -179.789716 -64.822309 179.758328 15.059515 -37.954371 -5.680091 -0.321049 2.297527 -0.000000 0.000000 0.000000 0.000000 0.000000 0.000000 0.000000 7.307828 0.211337 -0.590769 69.273054 8.345103 2.181337 -177.531491 48.857752 179.701132 -43.334607 56.243874 -25.156631 0.494424 -1.967356 -0.000000 0.000000 0.000000 0.000000 0.000000 0.000000 0.000000 
1.702686 16.965203 1.266656 4.711513 -53.356047 9.351514 -3.755510 -2.355218 -8.433751 -1.206100 -2.232443 -5.410277 -7.486963 -2.574474 -6.066824 11.902823 -0.312124 2.731187 -3.811007 -0.381927 2.844591 0.000000 0.000000 0.000000 12.618915 -6.357282 -3.329671 -100.054286 -32.201692 49.947570 -179.823492 -64.827912 179.754922 15.157913 -37.900436 -5.710235 -0.322911 2.300144 -0.000000 0.000000 0.000000 0.000000 0.000000 0.000000 0.000000 7.025422 0.744620 -0.642344 66.802693 9.577839 0.031647 -177.693434 49.559459 179.709069 -43.724512 55.803443 -25.151167 0.503537 -1.920375 -0.000000 0.000000 0.000000 0.000000 0.000000 0.000000 0.000000 
1.684748 17.001261 1.273122 4.815243 -52.067537 9.209809 -4.087752 -2.319500 -8.491794 -1.214365 -2.156507 -5.440873 -7.082747 -2.495337 -6.075107 11.461034 0.205638 2.952949 -3.716608 -0.378420 2.904991 0.000000 0.000000 0.000000 12.206496 -6.134936 -3.290163 -100.199136 -32.388789 50.632026 -179.859304 -64.774016 179.751157 15.296646 -37.833684 -5.753794 -0.326309 2.302361 -0.000000 0.000000 0.000000 0.000000 0.000000 0.000000 0.000000 6.705820 1.263024 -0.691683 64.016743 10.950634 -2.249098 -177.850900 50.550643 179.717087 -44.265391 55.218824 -25.154749 0.513335 -1.861330 -0.000000 0.000000 0.000000 0.000000 0.000000 0.000000 0.000000 
